<svg width="0" height="0" class="hidden">
  <symbol xmlns="http://www.w3.org/2000/svg" viewBox="0 0 48 48" id="arrow-back">
    <path d="M24 40 8 24 24 8l2.1 2.1-12.4 12.4H40v3H13.7l12.4 12.4Z"></path>
  </symbol>
  <symbol xmlns="http://www.w3.org/2000/svg" viewBox="0 0 48 48" id="arrow-down">
    <path d="m24 30.8-12-12 2.15-2.15L24 26.5l9.85-9.85L36 18.8Z"></path>
  </symbol>
  <symbol xmlns="http://www.w3.org/2000/svg" viewBox="0 0 48 48" id="moon">
    <path d="M24 42q-7.5 0-12.75-5.25T6 24q0-7.5 5.25-12.75T24 6q.4 0 .85.025.45.025 1.15.075-1.8 1.6-2.8 3.95-1 2.35-1 4.95 0 4.5 3.15 7.65Q28.5 25.8 33 25.8q2.6 0 4.95-.925T41.9 22.3q.05.6.075.975Q42 23.65 42 24q0 7.5-5.25 12.75T24 42Zm0-3q5.45 0 9.5-3.375t5.05-7.925q-1.25.55-2.675.825Q34.45 28.8 33 28.8q-5.75 0-9.775-4.025T19.2 15q0-1.2.25-2.575.25-1.375.9-3.125-4.9 1.35-8.125 5.475Q9 18.9 9 24q0 6.25 4.375 10.625T24 39Zm-.2-14.85Z"></path>
  </symbol>
  <symbol xmlns="http://www.w3.org/2000/svg" viewBox="0 0 48 48" id="moon-filled">
    <path d="M24 42q-7.5 0-12.75-5.25T6 24q0-7.5 5.25-12.75T24 6q.4 0 .85.025.45.025 1.15.075-1.8 1.6-2.8 3.95-1 2.35-1 4.95 0 4.5 3.15 7.65Q28.5 25.8 33 25.8q2.6 0 4.95-.925T41.9 22.3q.05.6.075.975Q42 23.65 42 24q0 7.5-5.25 12.75T24 42Z"></path>
  </symbol>
  <symbol xmlns="http://www.w3.org/2000/svg" viewBox="0 0 48 48" id="search-icon">
    <path d="M39.8 41.95 26.65 28.8q-1.5 1.3-3.5 2.025-2 .725-4.25.725-5.4 0-9.15-3.75T6 18.75q0-5.3 3.75-9.05 3.75-3.75 9.1-3.75 5.3 0 9.025 3.75 3.725 3.75 3.725 9.05 0 2.15-.7 4.15-.7 2-2.1 3.75L42 39.75Zm-20.95-13.4q4.05 0 6.9-2.875Q28.6 22.8 28.6 18.75t-2.85-6.925Q22.9 8.95 18.85 8.95q-4.1 0-6.975 2.875T9 18.75q0 4.05 2.875 6.925t6.975 2.875Z"></path>
  </symbol>
</svg>